<svg width="25" height="25" viewBox="0 0 25 25" fill="none" xmlns="http://www.w3.org/2000/svg">
<path d="M15.9483 9.05762C15.6249 9.05762 15.3628 9.31971 15.3628 9.6431V20.7086C15.3628 21.0318 15.6249 21.2941 15.9483 21.2941C16.2717 21.2941 16.5337 21.0318 16.5337 20.7086V9.6431C16.5337 9.31971 16.2717 9.05762 15.9483 9.05762Z" fill="#970000"/>
<path d="M9.03982 9.05762C8.71644 9.05762 8.45435 9.31971 8.45435 9.6431V20.7086C8.45435 21.0318 8.71644 21.2941 9.03982 21.2941C9.36321 21.2941 9.6253 21.0318 9.6253 20.7086V9.6431C9.6253 9.31971 9.36321 9.05762 9.03982 9.05762Z" fill="#970000"/>
<path d="M4.00465 7.44274V21.8677C4.00465 22.7203 4.31729 23.521 4.86343 24.0955C5.40705 24.6716 6.1636 24.9986 6.95537 25H18.0328C18.8248 24.9986 19.5813 24.6716 20.1247 24.0955C20.6709 23.521 20.9835 22.7203 20.9835 21.8677V7.44274C22.0692 7.15458 22.7727 6.10575 22.6274 4.99174C22.482 3.87796 21.5331 3.04479 20.4097 3.04456H17.4121V2.31272C17.4155 1.69728 17.1722 1.10631 16.7365 0.671547C16.3008 0.237013 15.709 -0.00495453 15.0935 7.6927e-05H9.89465C9.27922 -0.00495453 8.68733 0.237013 8.25166 0.671547C7.81598 1.10631 7.57264 1.69728 7.57607 2.31272V3.04456H4.57847C3.45508 3.04479 2.50619 3.87796 2.36074 4.99174C2.21551 6.10575 2.919 7.15458 4.00465 7.44274ZM18.0328 23.829H6.95537C5.95434 23.829 5.17561 22.9691 5.17561 21.8677V7.4942H19.8126V21.8677C19.8126 22.9691 19.0338 23.829 18.0328 23.829ZM8.74703 2.31272C8.74314 2.00786 8.86298 1.71443 9.07933 1.49922C9.29545 1.28401 9.58956 1.16577 9.89465 1.17103H15.0935C15.3986 1.16577 15.6927 1.28401 15.9088 1.49922C16.1252 1.7142 16.245 2.00786 16.2411 2.31272V3.04456H8.74703V2.31272ZM4.57847 4.21552H20.4097C20.9918 4.21552 21.4636 4.68733 21.4636 5.26938C21.4636 5.85143 20.9918 6.32324 20.4097 6.32324H4.57847C3.99642 6.32324 3.5246 5.85143 3.5246 5.26938C3.5246 4.68733 3.99642 4.21552 4.57847 4.21552Z" fill="#970000"/>
<path d="M12.4942 9.05762C12.1708 9.05762 11.9087 9.31971 11.9087 9.6431V20.7086C11.9087 21.0318 12.1708 21.2941 12.4942 21.2941C12.8176 21.2941 13.0796 21.0318 13.0796 20.7086V9.6431C13.0796 9.31971 12.8176 9.05762 12.4942 9.05762Z" fill="#970000"/>
</svg>
