<svg width="22" height="15" viewBox="0 0 22 15" fill="none" xmlns="http://www.w3.org/2000/svg">
<path d="M19.2471 0H1.85464C0.829933 0 0 0.835084 0 1.85464V12.9825C0 14.0081 0.836032 14.8372 1.85464 14.8372H19.2471C20.2632 14.8372 21.1017 14.0116 21.1017 12.9825V1.85464C21.1017 0.836898 20.2751 0 19.2471 0ZM18.9874 1.23643C18.6084 1.61333 12.0875 8.09997 11.8623 8.32393C11.512 8.67425 11.0463 8.86714 10.5509 8.86714C10.0555 8.86714 9.58975 8.67421 9.23827 8.32278C9.08685 8.17214 2.63784 1.75713 2.11438 1.23643H18.9874ZM1.23643 12.7309V2.10708L6.57937 7.42187L1.23643 12.7309ZM2.11516 13.6007L7.456 8.29385L8.36515 9.19821C8.94899 9.78205 9.72522 10.1036 10.5509 10.1036C11.3765 10.1036 12.1527 9.78205 12.7354 9.19937L13.6457 8.29385L18.9866 13.6007H2.11516ZM19.8653 12.7309L14.5224 7.42187L19.8653 2.10708V12.7309Z" fill="black" fill-opacity="0.45"/>
</svg>
