<svg width="24" height="24" viewBox="0 0 24 24" fill="none" xmlns="http://www.w3.org/2000/svg">
<path d="M21.024 9.312H15.6C17.712 6.384 17.088 3.456 17.184 2.4V2.352C17.184 1.056 16.176 0 14.88 0C13.296 0 12.768 1.344 12.24 2.736C11.616 4.368 10.8 6.432 8.112 7.728L6.384 8.64V8.544C6.384 8.016 5.952 7.584 5.424 7.584H2.4C1.056 7.584 0 8.64 0 9.984V20.304C0 21.648 1.056 22.704 2.4 22.704H5.424C5.952 22.704 6.384 22.272 6.384 21.744V21.696C7.2 21.888 7.872 22.08 8.496 22.224C10.32 22.704 11.664 23.088 13.584 23.088H18.672C19.776 23.088 20.688 22.176 20.688 21.024C20.688 20.544 20.544 20.112 20.256 19.776C21.024 19.488 21.552 18.72 21.552 17.856C21.552 17.376 21.408 16.944 21.12 16.608C21.888 16.32 22.416 15.552 22.416 14.688C22.416 14.16 22.224 13.728 21.936 13.344C22.608 13.008 23.088 12.288 23.088 11.472C23.04 10.224 22.128 9.312 21.024 9.312ZM2.4 21.696C1.584 21.696 0.96 21.072 0.96 20.256V9.936C0.96 9.12 1.584 8.496 2.4 8.496H5.424V9.36V21.024V21.648H2.4V21.696ZM21.024 12.48C20.976 12.48 18.144 12.48 18.192 12.48C17.904 12.48 17.712 12.672 17.712 12.96C17.712 13.248 17.904 13.44 18.192 13.44H20.352C20.928 13.44 21.408 13.92 21.408 14.544C21.408 15.168 20.928 15.648 20.352 15.648C20.016 15.648 17.232 15.648 17.328 15.648C17.04 15.648 16.848 15.84 16.848 16.128C16.848 16.416 17.04 16.608 17.328 16.608C17.472 16.608 19.536 16.608 19.488 16.608C20.064 16.608 20.544 17.088 20.544 17.712C20.544 18.336 20.064 18.816 19.488 18.816C19.152 18.816 16.368 18.816 16.464 18.816C16.176 18.816 15.984 19.008 15.984 19.296C15.984 20.112 17.184 19.68 18.624 19.776C19.2 19.776 19.68 20.256 19.68 20.88C19.68 21.504 19.2 22.08 18.624 22.08H13.536C11.712 22.08 10.512 21.744 8.688 21.264C8.016 21.072 7.248 20.88 6.336 20.64V9.696L8.544 8.64C11.568 7.152 12.48 4.8 13.152 3.12C13.728 1.68 14.016 1.008 14.88 1.008C15.6 1.008 16.176 1.632 16.224 2.352C16.128 3.552 16.704 6.144 14.784 8.784L14.256 9.504C14.016 9.792 14.256 10.272 14.64 10.272H21.024C21.6 10.272 22.08 10.752 22.08 11.376C22.08 12 21.6 12.48 21.024 12.48Z" fill="black"/>
</svg>
