<svg width="47" height="47" viewBox="0 0 47 47" fill="none" xmlns="http://www.w3.org/2000/svg">
<path d="M34.8828 16.2209C34.248 13.6834 32.7837 11.4308 30.7223 9.82061C28.661 8.21047 26.1208 7.33514 23.5052 7.33362C20.8895 7.3321 18.3483 8.20448 16.2851 9.81223C14.2219 11.42 12.7549 13.6709 12.1172 16.2077C9.10895 16.49 6.32507 17.9203 4.34382 20.2015C2.36258 22.4827 1.33626 25.4395 1.47804 28.4576C1.61983 31.4758 2.91882 34.3233 5.1052 36.4087C7.29158 38.4942 10.1973 39.6572 13.2188 39.6563H17.625C18.0145 39.6563 18.3881 39.5015 18.6636 39.2261C18.939 38.9506 19.0938 38.577 19.0938 38.1875C19.0938 37.798 18.939 37.4244 18.6636 37.1489C18.3881 36.8735 18.0145 36.7188 17.625 36.7188H13.2188C12.0615 36.7221 10.9149 36.4975 9.8444 36.0578C8.77393 35.618 7.80055 34.9717 6.97985 34.1558C5.32237 32.508 4.38737 30.2692 4.38056 27.932C4.37374 25.5947 5.29566 23.3505 6.9435 21.693C8.59135 20.0356 10.8301 19.1006 13.1674 19.0938C13.5442 19.1221 13.9182 19.0095 14.2167 18.7777C14.5152 18.546 14.717 18.2116 14.783 17.8394C15.0821 15.7422 16.1277 13.8232 17.728 12.4349C19.3283 11.0467 21.3756 10.2824 23.4941 10.2824C25.6126 10.2824 27.66 11.0467 29.2603 12.4349C30.8605 13.8232 31.9062 15.7422 32.2053 17.8394C32.2821 18.1987 32.4812 18.5201 32.7686 18.7488C33.0561 18.9776 33.414 19.0995 33.7813 19.0938C36.1185 19.0938 38.36 20.0222 40.0126 21.6749C41.6653 23.3275 42.5938 25.569 42.5938 27.9063C42.5938 30.2435 41.6653 32.485 40.0126 34.1376C38.36 35.7903 36.1185 36.7188 33.7813 36.7188H29.375C28.9855 36.7188 28.6119 36.8735 28.3364 37.1489C28.061 37.4244 27.9063 37.798 27.9063 38.1875C27.9063 38.577 28.061 38.9506 28.3364 39.2261C28.6119 39.5015 28.9855 39.6563 29.375 39.6563H33.7813C36.7806 39.6249 39.6544 38.4476 41.8138 36.3657C43.9731 34.2837 45.2545 31.4548 45.3953 28.4586C45.5362 25.4624 44.5258 22.5257 42.5713 20.2504C40.6167 17.9751 37.866 16.5335 34.8828 16.2209Z" fill="#32B56F"/>
<path d="M29.8054 28.9447C30.0824 29.2123 30.4534 29.3603 30.8385 29.3569C31.2236 29.3536 31.592 29.1991 31.8643 28.9268C32.1366 28.6545 32.2911 28.2861 32.2944 27.901C32.2978 27.5159 32.1497 27.1449 31.8822 26.8679L24.5384 19.5241C24.263 19.2488 23.8895 19.0941 23.5 19.0941C23.1106 19.0941 22.737 19.2488 22.4616 19.5241L15.1179 26.8679C14.8503 27.1449 14.7023 27.5159 14.7056 27.901C14.709 28.2861 14.8634 28.6545 15.1358 28.9268C15.4081 29.1991 15.7765 29.3536 16.1616 29.3569C16.5467 29.3603 16.9177 29.2123 17.1947 28.9447L22.0313 24.1081V42.5938C22.0313 42.9833 22.186 43.3569 22.4615 43.6324C22.7369 43.9078 23.1105 44.0626 23.5 44.0626C23.8896 44.0626 24.2631 43.9078 24.5386 43.6324C24.814 43.3569 24.9688 42.9833 24.9688 42.5938V24.1081L29.8054 28.9447Z" fill="#32B56F"/>
</svg>
