<svg width="20" height="20" viewBox="0 0 20 20" fill="none" xmlns="http://www.w3.org/2000/svg">
<path d="M13.8926 20.0001H6.10747C5.93986 20.0001 5.80396 19.8615 5.80396 19.6905V17.8618C5.80396 16.718 6.5216 15.7248 7.58974 15.3905L8.90199 14.9797V14.5507C8.90199 14.3857 9.02662 14.2412 9.18836 14.2369C9.35433 14.2326 9.49024 14.3684 9.49024 14.5367V15.1877C9.49024 15.3238 9.40345 15.4442 9.27634 15.484L7.75018 15.9617C6.93793 16.216 6.3922 16.9712 6.3922 17.841V19.3601H13.6079V17.8392C13.6079 16.9761 13.0556 16.2139 12.2466 15.9607L10.7238 15.484C10.5967 15.4443 10.5099 15.3241 10.5099 15.188V14.5507C10.5099 14.3857 10.6345 14.2412 10.7962 14.237C10.9622 14.2326 11.0981 14.3684 11.0981 14.5368V14.9798L12.4103 15.3905C13.4785 15.7249 14.1962 16.718 14.1962 17.8619V19.6906C14.1961 19.8615 14.0602 20.0001 13.8926 20.0001Z" fill="#08394A"/>
<path d="M11.9217 13.0587C11.9217 14.1847 11.018 15.1039 9.91507 15.0552C9.43331 15.0339 8.98375 14.8325 8.64134 14.4827C8.27857 14.1133 8.07861 13.6211 8.07861 13.0971V12.7368C8.07861 12.588 8.18255 12.4603 8.32597 12.433C8.73796 12.3534 9.8692 11.9943 10.1483 11.2981C10.1985 11.1728 10.3224 11.0956 10.4548 11.1071C10.587 11.1187 10.6963 11.2166 10.7248 11.3487C10.8385 11.8764 11.1322 12.4373 11.4527 12.4373C11.4813 12.4373 11.5095 12.4338 11.5387 12.4266C11.5896 12.4142 11.643 12.4111 11.6935 12.4249C11.8334 12.463 11.9217 12.5885 11.9217 12.7249V13.0587H11.9217ZM8.66683 12.9823V13.0976C8.66683 13.4558 8.80346 13.7921 9.05154 14.0448C9.2904 14.2888 9.60508 14.4271 9.94167 14.437C10.6869 14.4589 11.2943 13.827 11.2943 13.0665V13.0456C10.8452 12.9765 10.5179 12.5717 10.3116 12.1024C9.81181 12.6173 9.05523 12.8767 8.66683 12.9823Z" fill="#08394A"/>
<path d="M9.99478 16.6293C9.89636 16.6293 9.80408 16.5807 9.74719 16.4988L8.96302 15.3705C8.86609 15.231 8.89837 15.0378 9.03511 14.9389C9.17186 14.84 9.3613 14.873 9.45823 15.0124L9.99481 15.7844L10.5314 15.0124C10.6283 14.873 10.8177 14.84 10.9545 14.9389C11.0912 15.0378 11.1235 15.231 11.0265 15.3705L10.2424 16.4988C10.1855 16.5806 10.0932 16.6293 9.99478 16.6293Z" fill="#08394A"/>
<path d="M8.37952 13.0462C8.26948 13.0462 8.16329 12.9849 8.10946 12.8783L7.68935 12.0462C7.28642 11.2482 7.46082 10.3137 8.12333 9.72106C8.78347 9.13048 9.71113 9.07615 10.4316 9.58585C10.4549 9.60225 10.4781 9.61908 10.5015 9.63633C10.5056 9.63925 10.5095 9.63762 10.5095 9.63758C10.846 9.25597 11.4339 9.29577 12.0823 9.74379C12.496 10.0296 12.5745 10.6441 12.3221 11.6222C12.1574 12.2605 11.9081 12.8279 11.8976 12.8518C11.8288 13.0076 11.649 13.077 11.4962 13.0069C11.3434 12.9366 11.2754 12.7533 11.3442 12.5974C11.3465 12.5921 11.5854 12.0475 11.7367 11.4582C11.9307 10.7026 11.8607 10.3386 11.7419 10.2564C11.39 10.0132 11.0689 9.92901 10.9609 10.0515C10.7515 10.2888 10.4013 10.3261 10.1462 10.1383C10.1259 10.1233 10.1057 10.1088 10.0856 10.0946C9.48412 9.66909 8.86813 9.87818 8.52351 10.1865C8.17701 10.4965 7.89193 11.0953 8.2289 11.7627L8.64901 12.5948C8.72575 12.7468 8.66715 12.9335 8.51813 13.0118C8.47378 13.0351 8.42631 13.0462 8.37952 13.0462Z" fill="#08394A"/>
<path d="M6.41919 16.8327C6.35023 16.8327 6.28104 16.8082 6.22514 16.7581C6.05323 16.604 5.85449 16.4911 5.63445 16.4225L4.3278 16.015C4.20286 15.9761 4.11755 15.8584 4.11755 15.7252V15.1844C4.11755 15.0305 4.22591 14.8924 4.37577 14.8742C4.55427 14.8527 4.7058 14.9943 4.7058 15.1721V15.5055L5.80648 15.8487C6.10093 15.9405 6.3676 16.0906 6.59937 16.2949C6.71578 16.3975 6.74942 16.5741 6.66163 16.7029C6.60318 16.7887 6.51144 16.8327 6.41919 16.8327Z" fill="#08394A"/>
<path d="M6.09975 19.96H0.303517C0.135908 19.96 0 19.8214 0 19.6504V18.0391C0 17.0146 0.64624 16.1252 1.60811 15.8258L2.7451 15.4717V15.1596C2.7451 14.9946 2.86973 14.85 3.03147 14.8458C3.19744 14.8415 3.33335 14.9774 3.33335 15.1457V15.7232C3.33335 15.7232 3.24637 15.9798 3.11873 16.0196L1.76818 16.4408C1.06437 16.6601 0.591489 17.3115 0.58825 18.0619V19.36H6.09975C6.26736 19.3636 6.40327 19.5023 6.40327 19.6732C6.40327 19.8442 6.09975 19.96 6.09975 19.96Z" fill="#08394A"/>
<path d="M5.45101 13.843C5.45101 14.8542 4.63952 15.6796 3.64911 15.636C3.21654 15.6169 2.81286 15.4361 2.50534 15.1219C2.17961 14.7902 2 14.3482 2 13.8777V13.5609C2 13.4124 2.10371 13.285 2.24678 13.2578C2.60368 13.1887 3.58331 12.8787 3.82255 12.282C3.87265 12.157 3.99683 12.0802 4.12835 12.0914C4.26018 12.103 4.36931 12.2007 4.39773 12.3325C4.4947 12.7826 4.73965 13.2609 5.00267 13.2609C5.02568 13.2609 5.04835 13.258 5.07201 13.252C5.12124 13.2396 5.17329 13.2376 5.22233 13.2508C5.3625 13.2884 5.45101 13.4139 5.45101 13.5504V13.843ZM2.62749 13.8055V13.8789C2.62749 14.1836 2.74374 14.4697 2.95475 14.6846C3.20614 14.9415 3.55614 15.0606 3.91799 15.0057C4.46536 14.9227 4.8628 14.4291 4.8628 13.8647C4.48289 13.7938 4.20452 13.4669 4.02243 13.0693C3.58941 13.4905 2.96869 13.7101 2.62749 13.8055Z" fill="#08394A"/>
<path d="M3.72103 17.0271C3.62262 17.0271 3.53033 16.9785 3.47345 16.8966L2.78236 15.9022C2.68543 15.7628 2.7177 15.5695 2.85441 15.4707C2.99116 15.3717 3.1806 15.4047 3.27753 15.5442L3.72103 16.1823L4.16454 15.5442C4.2615 15.4047 4.45094 15.3718 4.58765 15.4707C4.72436 15.5696 4.75663 15.7628 4.6597 15.9022L3.96862 16.8966C3.91169 16.9785 3.81941 17.0271 3.72103 17.0271Z" fill="#08394A"/>
<path d="M2.29751 13.8695C2.18747 13.8695 2.08129 13.8083 2.02745 13.7016L1.65722 12.9682C1.29441 12.2497 1.45143 11.4083 2.04795 10.8746C2.64241 10.3428 3.47778 10.2939 4.12665 10.7528C4.14041 10.7626 4.15412 10.7724 4.1678 10.7824C4.48012 10.4543 5.00569 10.4942 5.58114 10.8918C5.95995 11.1536 6.03386 11.7081 5.80708 12.5871C5.66116 13.1526 5.44032 13.6553 5.43098 13.6764C5.36213 13.8323 5.18252 13.9017 5.02958 13.8315C4.87676 13.7613 4.80867 13.578 4.87752 13.4221C4.87958 13.4174 5.08914 12.9396 5.22169 12.423C5.39925 11.7313 5.31714 11.4572 5.24067 11.4044C4.91551 11.1797 4.66758 11.1407 4.5993 11.218C4.40243 11.4411 4.0732 11.4761 3.83346 11.2997C3.81548 11.2864 3.79788 11.2738 3.78042 11.2614C3.26758 10.8986 2.7422 11.077 2.44817 11.34C2.15257 11.6045 1.90933 12.1153 2.19685 12.6847L2.56708 13.4181C2.64382 13.5701 2.58522 13.7567 2.4362 13.835C2.39181 13.8585 2.3443 13.8695 2.29751 13.8695Z" fill="#08394A"/>
<path d="M19.6964 19.9599H13.9002C13.9002 19.9599 13.5967 19.8441 13.5967 19.6732C13.5967 19.5022 13.7326 19.3636 13.9002 19.3599H19.4117V18.0618C19.4084 17.3115 18.9356 16.66 18.2318 16.4408L16.8812 16.0196C16.7536 15.9798 16.6666 15.7236 16.6666 15.7236V15.1596C16.6666 14.9946 16.7912 14.85 16.9529 14.8458C17.1189 14.8414 17.2548 14.9774 17.2548 15.1457V15.4717L18.3919 15.8259C19.3537 16.1252 19.9999 17.0147 19.9999 18.0391V19.6504C19.9999 19.8214 19.864 19.9599 19.6964 19.9599Z" fill="#08394A"/>
<path d="M13.5811 16.8327C13.4973 16.8327 13.4139 16.7964 13.3555 16.7254C13.2497 16.5969 13.2772 16.4038 13.4016 16.2942C13.6334 16.0902 13.8996 15.9403 14.1934 15.8487L15.2941 15.5055V15.186C15.2941 15.0209 15.4187 14.8764 15.5804 14.8722C15.7464 14.8678 15.8824 15.0038 15.8824 15.1721V15.7246C15.8824 15.8582 15.7968 15.9762 15.6715 16.0152L14.3654 16.4225C14.1458 16.491 13.9471 16.6039 13.7752 16.7581C13.7192 16.8082 13.65 16.8327 13.5811 16.8327Z" fill="#08394A"/>
<path d="M18 13.843C18 14.8542 17.1885 15.6797 16.1981 15.636C15.7655 15.6169 15.3618 15.4361 15.0543 15.1219C14.7286 14.7902 14.549 14.3482 14.549 13.8777V13.5609C14.549 13.4124 14.6527 13.285 14.7957 13.2578C15.1526 13.1887 16.1323 12.8787 16.3715 12.282C16.4216 12.1571 16.545 12.0802 16.6773 12.0914C16.8092 12.103 16.9183 12.2007 16.9467 12.3325C17.0437 12.7826 17.2886 13.2609 17.5516 13.2609C17.5746 13.2609 17.5973 13.258 17.621 13.252C17.6702 13.2396 17.7222 13.2376 17.7712 13.2507C17.9114 13.2884 18 13.4139 18 13.5504V13.843ZM15.1372 13.8055V13.8788C15.1372 14.1836 15.2534 14.4697 15.4645 14.6846C15.7158 14.9414 16.0659 15.0606 16.4277 15.0057C16.9751 14.9227 17.3725 14.4291 17.3725 13.8647C16.9926 13.7937 16.7143 13.4669 16.5321 13.0692C16.0992 13.4904 15.4784 13.7101 15.1372 13.8055Z" fill="#08394A"/>
<path d="M16.2695 17.0271C16.1711 17.0271 16.0788 16.9785 16.0219 16.8966L15.3309 15.9022C15.2339 15.7628 15.2662 15.5695 15.4029 15.4707C15.5396 15.3717 15.7291 15.4047 15.826 15.5442L16.2695 16.1823L16.713 15.5442C16.81 15.4047 16.9994 15.3718 17.1361 15.4707C17.2729 15.5696 17.3052 15.7628 17.2082 15.9022L16.5171 16.8966C16.4602 16.9785 16.3679 17.0271 16.2695 17.0271Z" fill="#08394A"/>
<path d="M14.846 13.8695C14.7359 13.8695 14.6298 13.8083 14.5759 13.7016L14.2057 12.9682C13.8429 12.2497 13.9999 11.4083 14.5964 10.8746C15.1909 10.3428 16.0262 10.2939 16.675 10.7529C16.6888 10.7626 16.7025 10.7724 16.7162 10.7824C17.0285 10.4545 17.554 10.4942 18.1295 10.8918C18.5083 11.1536 18.5822 11.7081 18.3555 12.5871C18.2096 13.1525 17.9887 13.6553 17.9794 13.6764C17.9105 13.8323 17.7309 13.9017 17.578 13.8315C17.4252 13.7613 17.3571 13.578 17.4259 13.4221C17.428 13.4174 17.6376 12.9396 17.7701 12.4231C17.9476 11.7313 17.8656 11.4573 17.789 11.4044C17.4638 11.1797 17.2159 11.1408 17.1477 11.218C16.9508 11.4412 16.6216 11.4763 16.3818 11.2997C16.3639 11.2865 16.3464 11.2739 16.3289 11.2615C15.8159 10.8986 15.2906 11.0771 14.9966 11.3401C14.701 11.6046 14.4578 12.1154 14.7453 12.6847L15.1155 13.4181C15.1922 13.5701 15.1336 13.7568 14.9846 13.8351C14.9402 13.8585 14.8928 13.8695 14.846 13.8695Z" fill="#08394A"/>
<path d="M12.0105 8.76022H6.02923C5.86162 8.76022 5.72571 8.62163 5.72571 8.45063V1.50978C5.72571 1.33882 5.86158 1.2002 6.02923 1.2002H12.0105C12.1781 1.2002 12.314 1.33878 12.314 1.50978V8.45063C12.314 8.62163 12.1781 8.76022 12.0105 8.76022ZM6.31396 8.12021H11.6865V1.80021H6.31396V8.12021Z" fill="#08394A"/>
<path d="M2.35292 8.75871C2.18531 8.75871 2.0494 8.62012 2.03931 8.44912V3.14762C2.0494 2.97666 2.18527 2.83803 2.35292 2.84036H6.01814C6.18575 2.83807 6.32165 2.97666 6.32165 3.14762C6.32165 3.31858 6.18578 3.4572 6.01814 3.44034H2.62756V8.44912C2.65644 8.62012 2.52053 8.75871 2.35292 8.75871Z" fill="#08394A"/>
<path d="M15.3727 8.41311V7.05949C15.3727 6.89448 15.4973 6.74995 15.659 6.74571C15.825 6.74132 15.9609 6.87726 15.9609 7.04562V8.42707C15.9609 8.59538 15.825 8.73133 15.659 8.72698C15.4973 8.72262 15.3727 8.57809 15.3727 8.41311Z" fill="#08394A"/>
<path d="M13.7836 3.44035H12.0494C11.8877 3.44035 11.746 3.31322 11.7418 3.14825C11.7375 2.97896 11.8708 2.84033 12.0358 2.84033H13.77C13.9318 2.84033 14.0735 2.96745 14.0777 3.13243C14.0819 3.30176 13.9486 3.44035 13.7836 3.44035Z" fill="#08394A"/>
<path d="M16.251 8.75964H1.77964C1.62827 8.75964 1.49198 8.64931 1.47373 8.49603C1.45208 8.31407 1.59531 8.15967 1.77507 8.15967H16.2463C16.3977 8.15967 16.5341 8.27 16.5523 8.42328C16.5739 8.6052 16.4307 8.75964 16.251 8.75964Z" fill="#08394A"/>
<path d="M12.5594 1.80001H5.48015C5.31254 1.80001 5.17664 1.66142 5.17664 1.49042V0.309588C5.17664 0.138627 5.31251 0 5.48015 0H12.5594C12.727 0 12.8629 0.138588 12.8629 0.309588V1.49046C12.8629 1.66142 12.727 1.80001 12.5594 1.80001ZM5.76489 1.20003H12.2355V0.640006H5.76489V1.20003Z" fill="#08394A"/>
<path d="M10.1672 8.76001H7.87224C7.70463 8.76001 7.56873 8.62142 7.56873 8.45042V5.26955C7.56873 5.09859 7.7046 4.95996 7.87224 4.95996H10.1672C10.3348 4.95996 10.4707 5.09855 10.4707 5.26955V8.45042C10.4707 8.62142 10.3349 8.76001 10.1672 8.76001ZM8.15701 8.12H9.84327V5.56002H8.15701V8.12Z" fill="#08394A"/>
<path d="M8.24572 4.60027H7.12725C6.95964 4.60027 6.82373 4.46168 6.82373 4.29068V2.54982C6.82373 2.37886 6.9596 2.24023 7.12725 2.24023H8.24572C8.41333 2.24023 8.54924 2.37882 8.54924 2.54982V4.29068C8.5492 4.46168 8.41333 4.60027 8.24572 4.60027ZM7.41194 4.00025H7.92174V2.88028H7.41194V4.00025Z" fill="#08394A"/>
<path d="M10.9122 4.60027H9.79375C9.62614 4.60027 9.49023 4.46168 9.49023 4.29068V2.54982C9.49023 2.37886 9.6261 2.24023 9.79375 2.24023H10.9122C11.0798 2.24023 11.2157 2.37882 11.2157 2.54982V4.29068C11.2157 4.46168 11.0798 4.60027 10.9122 4.60027ZM10.1177 4.00025H10.6275V2.88028H10.1177V4.00025Z" fill="#08394A"/>
<path d="M4.71626 5.52037H3.6762C3.50859 5.52037 3.37268 5.38178 3.37268 5.21078V4.14992C3.37268 3.97896 3.50855 3.84033 3.6762 3.84033H4.71626C4.88386 3.84033 5.01977 3.97892 5.01977 4.14992V5.21078C5.01977 5.38174 4.88386 5.52037 4.71626 5.52037ZM3.96093 4.88036H4.39232V4.44035H3.96093V4.88036Z" fill="#08394A"/>
<path d="M4.71626 7.7606H3.6762C3.50859 7.7606 3.37268 7.62201 3.37268 7.45101V6.39015C3.37268 6.21919 3.50855 6.08057 3.6762 6.08057H4.71626C4.88386 6.08057 5.01977 6.21915 5.01977 6.39015V7.45101C5.01977 7.62201 4.88386 7.7606 4.71626 7.7606ZM3.96093 7.16059H4.39232V6.72057H3.96093V7.16059Z" fill="#08394A"/>
<path d="M16.178 7.31999H15.1555C15.0372 7.31999 14.9413 7.22213 14.9413 7.10146V6.4098C14.8977 6.39313 14.8547 6.37498 14.8124 6.35535L14.4782 6.69619C14.3145 6.86319 14.0482 6.86315 13.8845 6.69619L13.2899 6.08964C13.2062 6.0043 13.2062 5.86594 13.2899 5.7806L13.7694 5.2915C13.7501 5.24828 13.7324 5.20445 13.716 5.16003H13.0379C12.9195 5.16003 12.8236 5.06221 12.8236 4.9415V3.89843C12.8236 3.7778 12.9195 3.68002 13.0377 3.68002H13.7159C13.7323 3.63556 13.7501 3.59172 13.7694 3.54851L13.2898 3.05937C13.2061 2.97406 13.2061 2.83575 13.2898 2.75044L13.8844 2.1439C14.0481 1.97698 14.3144 1.9769 14.4782 2.1439L14.8123 2.48469C14.8547 2.46507 14.8976 2.44692 14.9412 2.43024V1.73847C14.9412 1.61784 15.037 1.52002 15.1553 1.52002H16.178C16.2963 1.52002 16.3922 1.61784 16.3922 1.73847V2.43024C16.4357 2.44692 16.4787 2.46511 16.5211 2.48469L17.0006 1.99556C17.0842 1.91025 17.2198 1.91025 17.3035 1.99556L18.0436 2.75044C18.1272 2.83575 18.1272 2.97406 18.0436 3.05937L17.564 3.54855C17.5833 3.59172 17.601 3.6356 17.6174 3.68002H18.2956C18.4139 3.68002 18.5098 3.77784 18.5098 3.89847V4.94153C18.5098 5.06221 18.4139 5.16003 18.2956 5.16003H17.6174C17.601 5.20445 17.5833 5.24832 17.564 5.2915L18.0435 5.78064C18.1272 5.86594 18.1272 6.0043 18.0435 6.0896L17.4489 6.69615C17.2852 6.86311 17.0189 6.86315 16.8552 6.69615L16.5211 6.35531C16.4787 6.37494 16.4357 6.39309 16.3922 6.40976V7.1015C16.3922 7.22217 16.2963 7.31999 16.178 7.31999ZM15.5295 6.72001H15.804V6.20153C15.804 6.05871 15.8999 5.93535 16.0358 5.90073C16.1778 5.86451 16.3134 5.80722 16.4388 5.73043C16.5589 5.65686 16.7123 5.67485 16.8114 5.7759L17.1708 6.14254L17.3554 5.95416L16.996 5.58753C16.897 5.48648 16.8794 5.33001 16.9515 5.20752C17.0268 5.07966 17.0829 4.94134 17.1184 4.79646C17.1523 4.65787 17.2733 4.56005 17.4133 4.56005H17.9216V4.28004H17.4133C17.2733 4.28004 17.1523 4.18218 17.1184 4.04363C17.0829 3.89875 17.0267 3.76043 16.9515 3.63253C16.8793 3.51003 16.897 3.35357 16.996 3.25256L17.3555 2.88592L17.1708 2.69751L16.8114 3.06415C16.7123 3.16516 16.5589 3.18319 16.4388 3.10966C16.3134 3.03283 16.1778 2.97558 16.0358 2.9394C15.8999 2.90477 15.804 2.78142 15.804 2.63859V2.12H15.5295V2.63851C15.5295 2.77916 15.4371 2.90438 15.3032 2.93796C15.1586 2.97418 15.0207 3.03224 14.8932 3.11051C14.7738 3.18385 14.6207 3.16469 14.5221 3.06419L14.1627 2.69751L13.978 2.88588L14.3375 3.25252C14.4365 3.35357 14.4541 3.51003 14.382 3.63253C14.3067 3.76039 14.2505 3.89871 14.2151 4.04363C14.1812 4.18222 14.0602 4.28004 13.9202 4.28004H13.4118V4.56005H13.9202C14.0602 4.56005 14.1812 4.65787 14.2151 4.79646C14.2505 4.94138 14.3067 5.07969 14.382 5.20756C14.4541 5.33005 14.4365 5.48652 14.3375 5.58753L13.978 5.95416L14.1627 6.14254L14.5221 5.7759C14.6212 5.67485 14.7746 5.65686 14.8947 5.73043C15.0201 5.80722 15.1557 5.86451 15.2978 5.90073C15.4336 5.93535 15.5295 6.05871 15.5295 6.20153V6.72001Z" fill="#08394A"/>
<path d="M15.673 5.52848C15.0739 5.52848 14.5865 5.03134 14.5865 4.42025C14.5865 3.80916 15.0739 3.31201 15.673 3.31201C16.2721 3.31201 16.7595 3.80916 16.7595 4.42025C16.7595 5.03134 16.2721 5.52848 15.673 5.52848ZM15.673 3.93115C15.4086 3.93115 15.1935 4.15057 15.1935 4.42025C15.1935 4.68992 15.4087 4.90935 15.673 4.90935C15.9374 4.90935 16.1525 4.68992 16.1525 4.42025C16.1525 4.15057 15.9374 3.93115 15.673 3.93115Z" fill="#08394A"/>
</svg>
