<svg width="19" height="17" viewBox="0 0 19 17" fill="none" xmlns="http://www.w3.org/2000/svg">
<path d="M9.06942 8.18896C10.2872 8.18896 11.3415 7.78547 12.2032 6.98937C13.0646 6.19341 13.5015 5.2195 13.5015 4.09435C13.5015 2.9696 13.0648 1.99556 12.203 1.19933C11.3413 0.403495 10.287 0 9.06942 0C7.85154 0 6.79736 0.403495 5.93579 1.19946C5.07422 1.99543 4.63733 2.96947 4.63733 4.09435C4.63733 5.2195 5.07422 6.19354 5.93579 6.9895C6.79764 7.78534 7.85196 8.18896 9.06942 8.18896ZM6.69838 1.90386C7.35948 1.2931 8.13499 0.996222 9.06942 0.996222C10.0037 0.996222 10.7794 1.2931 11.4406 1.90386C12.1017 2.51474 12.4232 3.23133 12.4232 4.09435C12.4232 4.95763 12.1017 5.67409 11.4406 6.28498C10.7794 6.89586 10.0037 7.19274 9.06942 7.19274C8.13527 7.19274 7.35976 6.89573 6.69838 6.28498C6.03715 5.67422 5.71566 4.95763 5.71566 4.09435C5.71566 3.23133 6.03715 2.51474 6.69838 1.90386Z" fill="#08394A" fill-opacity="0.7"/>
<path d="M16.8244 13.0719C16.7996 12.7407 16.7493 12.3793 16.6754 11.9977C16.6007 11.6133 16.5045 11.2499 16.3894 10.9177C16.2703 10.5744 16.1087 10.2354 15.9087 9.91049C15.7013 9.57327 15.4576 9.27963 15.1841 9.038C14.8982 8.78522 14.548 8.58198 14.1431 8.43373C13.7397 8.28626 13.2925 8.21156 12.8142 8.21156C12.6264 8.21156 12.4447 8.28276 12.0939 8.49378C11.878 8.62387 11.6254 8.77432 11.3435 8.94073C11.1025 9.08262 10.7759 9.21556 10.3726 9.33592C9.97906 9.45356 9.57952 9.51322 9.18502 9.51322C8.79081 9.51322 8.39126 9.45356 7.99747 9.33592C7.59455 9.21569 7.26787 9.08275 7.02724 8.94086C6.74801 8.77601 6.49531 8.62556 6.27616 8.49365C5.92561 8.28263 5.74394 8.21143 5.5561 8.21143C5.07765 8.21143 4.63066 8.28626 4.22732 8.43386C3.82272 8.58185 3.47244 8.78509 3.18619 9.03813C2.91271 9.27989 2.669 9.5734 2.46178 9.91049C2.26201 10.2354 2.10028 10.5743 1.98123 10.9179C1.86625 11.25 1.77008 11.6133 1.6954 11.9977C1.62127 12.3788 1.57115 12.7403 1.5463 13.0723C1.52188 13.3969 1.50952 13.7348 1.50952 14.0762C1.50952 14.9636 1.81487 15.682 2.417 16.2118C3.01169 16.7346 3.79843 16.9997 4.75546 16.9997H13.6157C14.5725 16.9997 15.3592 16.7346 15.954 16.2118C16.5563 15.6824 16.8616 14.9637 16.8616 14.076C16.8615 13.7335 16.849 13.3956 16.8244 13.0719ZM15.2105 15.49C14.8176 15.8355 14.2959 16.0035 13.6156 16.0035H4.75546C4.07499 16.0035 3.55331 15.8355 3.1605 15.4902C2.77513 15.1513 2.58785 14.6886 2.58785 14.0762C2.58785 13.7576 2.59922 13.4431 2.62197 13.1412C2.64415 12.8449 2.68949 12.5195 2.75674 12.1737C2.82314 11.8322 2.90766 11.5118 3.00818 11.2216C3.10462 10.9434 3.23617 10.6679 3.3993 10.4026C3.55499 10.1497 3.73413 9.93267 3.9318 9.75783C4.11669 9.59428 4.34974 9.46043 4.62434 9.36004C4.8783 9.26718 5.16371 9.21634 5.47355 9.20868C5.51132 9.22723 5.57856 9.26264 5.68751 9.32827C5.90918 9.46173 6.16469 9.614 6.44715 9.78066C6.76555 9.9682 7.17577 10.1376 7.66587 10.2838C8.16692 10.4334 8.67794 10.5094 9.18516 10.5094C9.69239 10.5094 10.2035 10.4334 10.7043 10.2839C11.1948 10.1375 11.6049 9.9682 11.9237 9.7804C12.2128 9.60972 12.4611 9.46186 12.6828 9.32827C12.7918 9.26277 12.859 9.22723 12.8968 9.20868C13.2068 9.21634 13.4922 9.26718 13.7463 9.36004C14.0207 9.46043 14.2538 9.59441 14.4387 9.75783C14.6363 9.93254 14.8155 10.1495 14.9712 10.4027C15.1344 10.6679 15.2661 10.9435 15.3624 11.2215C15.4631 11.512 15.5477 11.8324 15.614 12.1736C15.6811 12.52 15.7266 12.8456 15.7488 13.1413V13.1416C15.7717 13.4423 15.7832 13.7567 15.7833 14.0762C15.7832 14.6887 15.5959 15.1513 15.2105 15.49Z" fill="#08394A" fill-opacity="0.7"/>
</svg>
