<svg width="16" height="12" viewBox="0 0 16 12" fill="none" xmlns="http://www.w3.org/2000/svg">
<path d="M0.970018 0.119663C0.710018 -0.0725245 0.332518 -0.0279933 0.127518 0.215757C-0.0774815 0.459507 -0.0299815 0.813413 0.230018 1.0056L15.03 11.8806C15.29 12.0728 15.6675 12.0283 15.8725 11.7845C16.0775 11.5408 16.03 11.1869 15.77 10.9947L13.14 9.06341C14.13 8.11185 14.8 7.04544 15.1375 6.28841C15.22 6.10326 15.22 5.89701 15.1375 5.71185C14.765 4.87513 13.9825 3.65638 12.8125 2.63919C11.6375 1.61263 10.02 0.750132 8.00002 0.750132C6.29502 0.750132 4.87502 1.36654 3.76752 2.17513L0.970018 0.119663ZM5.57752 3.50404C6.21502 2.95794 7.06752 2.62513 8.00002 2.62513C9.98752 2.62513 11.6 4.13685 11.6 6.00013C11.6 6.58373 11.4425 7.13216 11.165 7.61029L10.2 6.90248C10.33 6.62591 10.4 6.32123 10.4 6.00013C10.4 4.75794 9.32502 3.75013 8.00002 3.75013C7.93002 3.75013 7.86002 3.75248 7.79002 3.75951C7.92252 3.97748 8.00002 4.2306 8.00002 4.50013C8.00002 4.73919 7.94002 4.96419 7.83502 5.16341L5.57752 3.50404ZM11.155 10.4884L9.32502 9.13841C8.91502 9.29076 8.46752 9.37513 8.00002 9.37513C6.01252 9.37513 4.40002 7.86341 4.40002 6.00013C4.40002 5.83841 4.41252 5.68138 4.43502 5.52669L2.07752 3.78529C1.50752 4.48138 1.10002 5.17513 0.862518 5.71185C0.780018 5.89701 0.780018 6.10326 0.862518 6.28841C1.23502 7.12513 2.01752 8.34388 3.18752 9.36107C4.36252 10.3876 5.98002 11.2501 8.00002 11.2501C9.19502 11.2501 10.2475 10.9478 11.155 10.4884Z" fill="#08394A" fill-opacity="0.5"/>
</svg>
