<svg width="15" height="15" viewBox="0 0 15 15" fill="none" xmlns="http://www.w3.org/2000/svg">
<path d="M14.9047 7.20819C14.7707 7.02488 11.5778 2.71973 7.49993 2.71973C3.42206 2.71973 0.229043 7.02488 0.0951857 7.20802C-0.0317286 7.38192 -0.0317286 7.61779 0.0951857 7.7917C0.229043 7.97501 3.42206 12.2802 7.49993 12.2802C11.5778 12.2802 14.7707 7.97498 14.9047 7.79185C15.0318 7.61797 15.0318 7.38192 14.9047 7.20819ZM7.49993 11.2912C4.49614 11.2912 1.89454 8.43374 1.12442 7.49961C1.89355 6.56466 4.4897 3.70873 7.49993 3.70873C10.5036 3.70873 13.105 6.56565 13.8754 7.50028C13.1063 8.43521 10.5102 11.2912 7.49993 11.2912Z" fill="#989898"/>
<path d="M7.49988 4.5332C5.86388 4.5332 4.53284 5.86425 4.53284 7.50025C4.53284 9.13625 5.86388 10.4673 7.49988 10.4673C9.13588 10.4673 10.4669 9.13625 10.4669 7.50025C10.4669 5.86425 9.13588 4.5332 7.49988 4.5332ZM7.49988 9.47826C6.40916 9.47826 5.52187 8.59095 5.52187 7.50025C5.52187 6.40955 6.40919 5.52224 7.49988 5.52224C8.59058 5.52224 9.4779 6.40955 9.4779 7.50025C9.4779 8.59095 8.59061 9.47826 7.49988 9.47826Z" fill="#989898"/>
</svg>
